<?xml version="1.0" encoding="utf-8"?>
<!-- Generator: Adobe Illustrator 17.0.0, SVG Export Plug-In . SVG Version: 6.00 Build 0)  -->
<!DOCTYPE svg PUBLIC "-//W3C//DTD SVG 1.1//EN" "http://www.w3.org/Graphics/SVG/1.1/DTD/svg11.dtd">
<svg version="1.1" id="レイヤー_1" xmlns="http://www.w3.org/2000/svg" xmlns:xlink="http://www.w3.org/1999/xlink" x="0px"
	 y="0px" width="750px" height="447px" viewBox="0 0 750 447" enable-background="new 0 0 750 447" xml:space="preserve">
<g>
	<g>
		<polygon fill="none" points="0.212,0 0.212,168.615 168.827,0 		"/>
		<polygon fill="#007DC0" stroke="#007DC0" stroke-width="4" stroke-miterlimit="10" points="168.827,0 0.212,168.615 
			0.212,309.078 309.29,0 		"/>
	</g>
	<g>
		<circle fill="#007DC0" cx="375.212" cy="283.778" r="145.72"/>
		<circle fill="none" stroke="#007DC0" stroke-width="5" stroke-miterlimit="10" cx="375.212" cy="283.778" r="156.788"/>
		<g>
			<path fill="#FFFFFF" d="M445.826,346.632l-1.292-7.478c-1.11-6.438-5.589-12.034-11.979-14.967l-27.205-12.5
				c-3.34-1.531-4.295-6.374-4.391-6.636c-0.295-0.436-0.793-0.698-1.559-0.698c-0.023,0-0.046,0-0.069,0
				c-0.652,0.083-1.186,0.524-1.362,1.128l-3.139,11.018l-19.615,35.596l-19.566-35.478l-3.192-11.137
				c-0.17-0.601-0.705-1.046-1.601-1.145c-0.564,0-1.083,0.268-1.474,0.927c-0.009,0.05-0.954,4.887-4.303,6.424l-27.21,12.5
				c-6.388,2.936-10.865,8.529-11.976,14.967l-1.292,7.478c-0.508,2.93,0.215,7.025,3,9.095c0.328,0.246,0.739,0.61,1.26,1.073
				c5.008,4.443,20.247,17.964,66.355,17.964c46.1,0,61.343-13.521,66.352-17.964c0.521-0.461,0.934-0.828,1.262-1.073
				C445.613,353.654,446.335,349.559,445.826,346.632z"/>
			<path fill="#FFFFFF" d="M388.177,237.337c6.593,12.373,15.622,29.324,19.563,31.785l0.748,0.466l2.741-21.402
				c0.751-9.401-2.271-18.3-8.509-25.058c-6.819-7.387-16.845-11.623-27.506-11.623c-10.662,0-20.689,4.236-27.507,11.623
				c-6.239,6.755-9.262,15.657-8.509,25.08l2.494,21.187l0.834-0.911c1.721-1.874,4.821-3.83,8.745-6.308
				c9.077-5.729,22.719-14.338,33.434-31.322C385.695,232.677,386.877,234.895,388.177,237.337z"/>
			<path fill="#FFFFFF" d="M320.517,279.046c0.46,1.912,2.152,3.248,4.116,3.248c0.332,0,0.664-0.042,0.99-0.119l7.135-1.714
				c1.361-0.326,2.463-1.311,2.957-2.622l0.294,0.019l-0.134-0.535c0.161-0.673,0.165-1.333,0.013-1.968l-3.72-15.395
				c-0.892-5.367-1.345-9.956-1.345-13.645c0-24.476,19.912-44.387,44.387-44.387c24.474,0,44.386,19.912,44.386,44.387
				c0,3.687-0.452,8.278-1.41,13.816l-3.655,15.224c-0.054,0.226-0.087,0.455-0.1,0.696l-0.146,0.326
				c-0.048,0.108-4.968,10.745-20.248,13.745c-0.793-1.465-2.323-2.39-4.015-2.39h-9.207c-2.518,0-4.567,2.05-4.567,4.57v3.601
				c0,2.519,2.049,4.57,4.567,4.57h9.207c1.915,0,3.624-1.22,4.276-3.01c9.145-1.567,15.262-5.416,18.796-8.391
				c3.662-3.079,5.851-6.234,6.925-8.041l4.777,1.145c0.325,0.077,0.658,0.119,0.989,0.119c1.964,0,3.656-1.336,4.116-3.248
				l3.655-15.224c0.544-2.271-0.86-4.561-3.13-5.108l-2.639-0.632c0.626-4.454,0.944-8.41,0.944-11.766
				c-0.001-29.511-24.012-53.523-53.525-53.523c-29.513,0-53.524,24.012-53.524,53.524c0,3.355,0.317,7.312,0.944,11.763
				l-2.641,0.635c-2.27,0.546-3.674,2.837-3.128,5.108L320.517,279.046z"/>
		</g>
	</g>
	<g>
		<path fill="#FFFFFF" d="M58.746,161.413l6.991-6.991c5.519-5.519,11.039-7.36,16.392-2.008c5.185,5.185,3.912,11.273-1.439,16.625
			l-4.048,4.047l9.734,9.734l-3.111,3.111L58.746,161.413z M77.78,166.932c4.316-4.315,4.783-7.928,1.27-11.44
			c-3.545-3.546-6.857-2.509-11.171,1.807l-3.513,3.513l9.766,9.768L77.78,166.932z"/>
		<path fill="#FFFFFF" d="M93.697,157.371c-6.055-6.055-5.584-13.549-1.136-17.998c4.448-4.448,11.942-4.917,17.997,1.138
			c6.021,6.021,5.517,13.481,1.069,17.929C107.179,162.89,99.717,163.392,93.697,157.371z M107.412,143.656
			c-4.18-4.182-9.166-4.884-12.309-1.74c-3.145,3.145-2.409,8.096,1.771,12.278c4.182,4.181,9.064,4.85,12.21,1.704
			C112.23,152.754,111.594,147.837,107.412,143.656z"/>
		<path fill="#FFFFFF" d="M99.948,121.482c-1.238-1.238-1.072-2.876,0.134-4.081c1.203-1.204,2.843-1.372,4.081-0.134
			c1.136,1.137,1.072,2.877-0.134,4.081C102.826,122.553,101.084,122.619,99.948,121.482z M106.237,126.634l3.044-3.044
			l18.163,18.163l-3.044,3.044L106.237,126.634z"/>
		<path fill="#FFFFFF" d="M115.433,117.437l2.51-2.509l2.878,2.341l0.099-0.099c0.032-3.446,0.536-6.69,3.011-9.166
			c3.813-3.813,8.027-3.078,12.676,1.572l11.508,11.507l-3.044,3.044l-11.106-11.105c-3.411-3.412-5.889-3.812-8.295-1.405
			c-1.875,1.874-2.208,4.081-2.208,7.761l13.177,13.179l-3.044,3.044L115.433,117.437z"/>
		<path fill="#FFFFFF" d="M148.947,109.011l-10.069-10.068l-2.709,2.71l-2.309-2.308l2.677-3.01l-4.716-5.453l2.543-2.543
			l5.083,5.085l4.919-4.918l2.476,2.475l-4.919,4.918l10.136,10.135c2.24,2.241,4.215,2.811,6.321,0.703
			c0.637-0.636,1.238-1.707,1.607-2.543l2.878,1.673c-0.704,1.371-1.573,2.91-2.677,4.014
			C156.304,113.763,152.593,112.658,148.947,109.011z"/>
		<path fill="#FFFFFF" d="M171.454,92.66l5.452-5.452l-18.297-18.298l-4.349,4.349l-1.94-1.94c1.774-2.576,2.776-4.717,3.346-6.824
			l2.339-2.341l21.979,21.977l4.917-4.918l2.543,2.541l-13.448,13.448L171.454,92.66z"/>
	</g>
</g>
</svg>
