<?xml version="1.0" encoding="utf-8"?>
<!-- Generator: Adobe Illustrator 17.0.0, SVG Export Plug-In . SVG Version: 6.00 Build 0)  -->
<!DOCTYPE svg PUBLIC "-//W3C//DTD SVG 1.1//EN" "http://www.w3.org/Graphics/SVG/1.1/DTD/svg11.dtd">
<svg version="1.1" id="レイヤー_1" xmlns="http://www.w3.org/2000/svg" xmlns:xlink="http://www.w3.org/1999/xlink" x="0px"
	 y="0px" width="750px" height="447px" viewBox="0 0 750 447" enable-background="new 0 0 750 447" xml:space="preserve">
<g>
	<g>
		<polygon fill="none" points="0.212,0 0.212,168.615 168.827,0 		"/>
		<polygon fill="#007DC0" stroke="#007DC0" stroke-width="4" stroke-miterlimit="10" points="168.827,0 0.212,168.615 
			0.212,309.078 309.29,0 		"/>
	</g>
	<g>
		<path fill="#FFFFFF" d="M58.747,161.413l6.991-6.991c5.519-5.519,11.039-7.36,16.391-2.008c5.185,5.185,3.913,11.273-1.439,16.625
			l-4.047,4.047l9.734,9.734l-3.111,3.111L58.747,161.413z M77.78,166.932c4.316-4.315,4.784-7.928,1.271-11.44
			c-3.546-3.546-6.858-2.509-11.172,1.807l-3.513,3.513l9.766,9.768L77.78,166.932z"/>
		<path fill="#FFFFFF" d="M93.697,157.371c-6.055-6.055-5.585-13.549-1.137-17.998c4.448-4.448,11.942-4.917,17.997,1.138
			c6.021,6.021,5.518,13.481,1.07,17.929C107.178,162.89,99.718,163.392,93.697,157.371z M107.413,143.656
			c-4.181-4.182-9.166-4.884-12.31-1.74c-3.145,3.145-2.409,8.096,1.772,12.278c4.181,4.181,9.064,4.85,12.21,1.704
			C112.229,152.754,111.594,147.837,107.413,143.656z"/>
		<path fill="#FFFFFF" d="M99.948,121.482c-1.238-1.238-1.07-2.876,0.134-4.081c1.204-1.204,2.843-1.372,4.081-0.134
			c1.137,1.137,1.072,2.877-0.134,4.081C102.825,122.553,101.085,122.619,99.948,121.482z M106.236,126.634l3.044-3.044
			l18.163,18.163l-3.044,3.044L106.236,126.634z"/>
		<path fill="#FFFFFF" d="M115.433,117.437l2.509-2.509l2.878,2.341l0.099-0.099c0.033-3.446,0.536-6.69,3.011-9.166
			c3.813-3.813,8.027-3.078,12.677,1.572l11.507,11.507l-3.044,3.044l-11.106-11.105c-3.411-3.412-5.888-3.812-8.295-1.405
			c-1.874,1.874-2.208,4.081-2.208,7.761l13.179,13.179l-3.044,3.044L115.433,117.437z"/>
		<path fill="#FFFFFF" d="M148.946,109.011l-10.069-10.068l-2.709,2.71l-2.308-2.308l2.675-3.01l-4.716-5.453l2.543-2.543
			l5.084,5.085l4.918-4.918l2.476,2.475l-4.919,4.918l10.136,10.135c2.241,2.241,4.215,2.811,6.322,0.703
			c0.636-0.636,1.238-1.707,1.607-2.543l2.876,1.673c-0.703,1.371-1.573,2.91-2.677,4.014
			C156.305,113.763,152.593,112.658,148.946,109.011z"/>
		<path fill="#FFFFFF" d="M170.719,94.866c0.969-14.416-0.37-22.846-4.584-27.061c-2.809-2.81-6.321-3.379-9.366-0.334
			c-2.007,2.007-2.508,4.984-2.241,7.928l-3.511,0.033c-0.167-4.181,0.501-7.727,3.612-10.838
			c4.382-4.382,10.003-4.249,14.384,0.133c4.884,4.884,6.022,13.716,5.72,24.922c1.171-1.371,2.543-3.011,3.78-4.249l6.791-6.791
			l2.642,2.642l-15.421,15.421L170.719,94.866z"/>
	</g>
	<g>
		<circle fill="none" stroke="#007DC0" stroke-width="5" stroke-miterlimit="10" cx="375.212" cy="283.778" r="156.788"/>
		<g>
			<circle fill="#007DC0" cx="375.212" cy="283.778" r="145.72"/>
			<g>
				<path fill="#FFFFFF" d="M397.27,230.421l18.102,4.804c0.472,0.096,0.856,0.482,0.964,0.957l4.772,18.101
					c0.129,0.531,0.596,0.905,1.14,0.905c0.549,0,1.011-0.374,1.135-0.905l4.779-18.101c0.102-0.475,0.487-0.861,0.959-0.957
					l18.104-4.804c0.529-0.099,0.905-0.571,0.905-1.115c0-0.549-0.376-1.011-0.905-1.117l-18.104-4.801
					c-0.472-0.101-0.858-0.482-0.959-0.957l-4.78-18.101c-0.123-0.527-0.586-0.907-1.135-0.907c-0.544,0-1.011,0.381-1.14,0.907
					l-4.772,18.101c-0.109,0.475-0.492,0.856-0.964,0.957l-18.101,4.801c-0.534,0.106-0.905,0.569-0.905,1.117
					C396.365,229.849,396.736,230.322,397.27,230.421z"/>
				<path fill="#FFFFFF" d="M427.007,303.061l-8.217-2.178c-0.215-0.05-0.391-0.218-0.438-0.435l-2.166-8.216
					c-0.057-0.24-0.267-0.411-0.517-0.411c-0.245,0-0.457,0.171-0.517,0.411l-2.166,8.216c-0.05,0.218-0.223,0.385-0.438,0.435
					l-8.214,2.178c-0.242,0.047-0.413,0.26-0.413,0.507c0,0.247,0.171,0.46,0.413,0.509l8.214,2.176
					c0.215,0.045,0.388,0.223,0.438,0.44l2.166,8.211c0.06,0.24,0.272,0.411,0.517,0.411c0.25,0,0.46-0.17,0.517-0.411l2.166-8.211
					c0.047-0.218,0.223-0.396,0.438-0.44l8.217-2.176c0.237-0.05,0.411-0.262,0.411-0.509
					C427.417,303.321,427.244,303.108,427.007,303.061z"/>
				<path fill="#FFFFFF" d="M306.733,247.39l12.934,3.427c0.341,0.072,0.611,0.347,0.692,0.687l3.407,12.934
					c0.094,0.383,0.428,0.648,0.816,0.648c0.39,0,0.722-0.265,0.814-0.648l3.41-12.934c0.072-0.341,0.351-0.616,0.69-0.687
					l12.936-3.427c0.378-0.079,0.648-0.42,0.648-0.806c0-0.386-0.269-0.717-0.648-0.796l-12.936-3.432
					c-0.339-0.074-0.618-0.341-0.69-0.682l-3.41-12.941c-0.092-0.376-0.423-0.643-0.814-0.643c-0.389,0-0.722,0.267-0.816,0.643
					l-3.407,12.941c-0.082,0.341-0.351,0.608-0.692,0.682l-12.934,3.432c-0.386,0.079-0.65,0.41-0.65,0.796
					C306.083,246.969,306.347,247.311,306.733,247.39z"/>
				<polygon fill="#FFFFFF" points="396.404,302.723 383.107,302.545 382.751,297.552 395.882,297.77 395.106,291.389 
					385.752,291.178 394.713,275.7 384.373,275.334 376.481,288.068 368.593,275.334 358.251,275.7 367.211,291.178 
					357.858,291.389 357.084,297.77 370.218,297.552 369.857,302.545 356.559,302.723 355.731,309.537 369.29,309.435 
					368.532,318.656 369.711,318.656 376.206,318.656 376.757,318.656 383.253,318.656 384.435,318.656 383.676,309.435 
					397.235,309.537 				"/>
				<path fill="#FFFFFF" d="M447.38,288.79c-1.068-2.576-2.529-4.972-4.292-7.185c-1.763-2.21-3.825-4.243-6.119-6.112l-0.141-0.114
					l0.136,0.114c-6.893-5.603-15.965-9.885-26.473-12.892h-0.003c-10.518-2.989-22.517-4.658-35.276-4.658
					c-9.722,0-18.999,0.969-27.519,2.752c-8.52,1.783-16.284,4.379-22.98,7.687l-0.005,0.003
					c-6.688,3.318-12.375,7.358-16.596,12.286l0.077-0.094l-0.079,0.094c-2.107,2.468-3.847,5.175-5.066,8.12
					c-1.221,2.947-1.902,6.124-1.899,9.396v25.7c-0.003,3.274,0.677,6.453,1.899,9.401c1.068,2.576,2.529,4.97,4.292,7.183
					c1.765,2.213,3.825,4.243,6.12,6.112l0.005,0.003c6.893,5.598,15.963,9.89,26.471,12.892l0.022,0.005l0.685,0.193l-0.65-0.186
					c10.505,2.98,22.485,4.646,35.223,4.649h0.003c9.72-0.003,18.996-0.972,27.517-2.754c8.52-1.783,16.284-4.381,22.979-7.687
					l0.005-0.005c6.688-3.319,12.372-7.361,16.596-12.284l0.003-0.005c2.107-2.463,3.845-5.167,5.064-8.115l-0.077,0.18l0.079-0.18
					c1.219-2.947,1.899-6.127,1.899-9.401v-25.7C449.279,294.914,448.599,291.737,447.38,288.79z M317.718,337.269
					c-0.779-0.734-1.506-1.481-2.154-2.235c-1.535-1.8-2.688-3.642-3.457-5.496c-0.769-1.859-1.155-3.731-1.155-5.652v-11.651
					c1.501,1.852,3.274,3.6,5.279,5.237c0.482,0.388,0.977,0.772,1.486,1.152V337.269z M331.921,346.222
					c-0.977-0.425-1.939-0.861-2.861-1.32c-2.149-1.063-4.127-2.198-5.932-3.382v-19.36c2.693,1.545,5.635,2.962,8.793,4.238
					V346.222z M349.508,351.738c-4.455-0.942-8.637-2.122-12.491-3.499h0.319v-19.867c1.239,0.41,2.51,0.799,3.805,1.17
					c2.68,0.762,5.479,1.429,8.367,2.01V351.738z M372.505,354.297c-6.127-0.124-12.017-0.682-17.584-1.582v-20.215
					c5.6,0.865,11.49,1.372,17.584,1.491V354.297z M396.182,352.593c-5.766,0.962-11.883,1.565-18.262,1.689v-20.28
					c6.339-0.124,12.464-0.675,18.262-1.595V352.593z M413.769,348.116c-1.909,0.692-3.897,1.335-5.966,1.924
					c-1.998,0.569-4.08,1.075-6.211,1.54v-20.161c4.285-0.885,8.359-1.988,12.177-3.276V348.116z M427.974,341.059
					c-2.561,1.756-5.509,3.388-8.795,4.871v-19.815c1.582-0.655,3.118-1.343,4.584-2.067c1.466-0.729,2.868-1.493,4.211-2.285
					V341.059z M439.471,323.885c0,1.921-0.385,3.793-1.157,5.652c-0.989,2.403-2.648,4.794-4.93,7.086v-18.282h-0.321
					c2.245-1.714,4.235-3.541,5.909-5.496c0.171-0.2,0.334-0.403,0.5-0.606L439.471,323.885z M438.314,303.833
					c-1.335,3.244-3.882,6.463-7.541,9.443c-5.477,4.47-13.421,8.347-22.97,11.059c-9.547,2.72-20.693,4.29-32.591,4.29
					c-18.126,0.008-34.521-3.659-46.152-9.428c-5.816-2.875-10.424-6.268-13.495-9.87c-1.535-1.797-2.688-3.64-3.457-5.494
					c-0.769-1.86-1.155-3.729-1.155-5.647s0.386-3.788,1.155-5.647c1.34-3.247,3.882-6.466,7.544-9.44
					c5.479-4.473,13.421-8.352,22.97-11.065c9.546-2.717,20.695-4.285,32.59-4.285c18.126-0.01,34.519,3.659,46.15,9.425
					c5.818,2.873,10.429,6.27,13.495,9.868c1.538,1.797,2.69,3.64,3.457,5.496c0.772,1.859,1.157,3.728,1.157,5.647
					S439.085,301.973,438.314,303.833z"/>
			</g>
		</g>
	</g>
</g>
</svg>
