<?xml version="1.0" encoding="utf-8"?>
<!-- Generator: Adobe Illustrator 17.0.0, SVG Export Plug-In . SVG Version: 6.00 Build 0)  -->
<!DOCTYPE svg PUBLIC "-//W3C//DTD SVG 1.1//EN" "http://www.w3.org/Graphics/SVG/1.1/DTD/svg11.dtd">
<svg version="1.1" id="レイヤー_1" xmlns="http://www.w3.org/2000/svg" xmlns:xlink="http://www.w3.org/1999/xlink" x="0px"
	 y="0px" width="750px" height="447px" viewBox="0 0 750 447" enable-background="new 0 0 750 447" xml:space="preserve">
<g>
	<g>
		<polygon fill="none" points="0.212,0 0.212,168.615 168.827,0 		"/>
		<polygon fill="#007DC0" stroke="#007DC0" stroke-width="4" stroke-miterlimit="10" points="168.827,0 0.212,168.615 
			0.212,309.078 309.29,0 		"/>
	</g>
	<g>
		<path fill="#FFFFFF" d="M58.748,161.413l6.991-6.991c5.519-5.519,11.039-7.36,16.39-2.008c5.185,5.185,3.914,11.273-1.439,16.625
			l-4.046,4.047l9.734,9.734l-3.111,3.111L58.748,161.413z M77.779,166.932c4.316-4.315,4.785-7.928,1.272-11.44
			c-3.547-3.546-6.859-2.509-11.173,1.807l-3.513,3.513l9.766,9.768L77.779,166.932z"/>
		<path fill="#FFFFFF" d="M93.698,157.371c-6.055-6.055-5.586-13.549-1.139-17.998c4.448-4.448,11.942-4.917,17.997,1.138
			c6.021,6.021,5.519,13.481,1.072,17.929C107.178,162.89,99.718,163.392,93.698,157.371z M107.413,143.656
			c-4.182-4.182-9.166-4.884-12.311-1.74c-3.145,3.145-2.409,8.096,1.774,12.278c4.18,4.181,9.064,4.85,12.21,1.704
			C112.228,152.754,111.593,147.837,107.413,143.656z"/>
		<path fill="#FFFFFF" d="M99.947,121.482c-1.238-1.238-1.069-2.876,0.134-4.081c1.205-1.204,2.843-1.372,4.081-0.134
			c1.139,1.137,1.072,2.877-0.134,4.081C102.825,122.553,101.086,122.619,99.947,121.482z M106.236,126.634l3.044-3.044
			l18.163,18.163l-3.044,3.044L106.236,126.634z"/>
		<path fill="#FFFFFF" d="M115.434,117.437l2.508-2.509l2.878,2.341l0.099-0.099c0.035-3.446,0.536-6.69,3.011-9.166
			c3.813-3.813,8.027-3.078,12.679,1.572l11.505,11.507l-3.044,3.044l-11.106-11.105c-3.411-3.412-5.887-3.812-8.295-1.405
			c-1.873,1.874-2.208,4.081-2.208,7.761l13.18,13.179l-3.044,3.044L115.434,117.437z"/>
		<path fill="#FFFFFF" d="M148.946,109.011l-10.069-10.068l-2.709,2.71l-2.307-2.308l2.674-3.01l-4.716-5.453l2.543-2.543
			l5.085,5.085l4.917-4.918l2.476,2.475l-4.919,4.918l10.136,10.135c2.242,2.241,4.215,2.811,6.323,0.703
			c0.635-0.636,1.238-1.707,1.607-2.543l2.875,1.673c-0.702,1.371-1.573,2.91-2.677,4.014
			C156.306,113.763,152.592,112.658,148.946,109.011z"/>
		<path fill="#FFFFFF" d="M169.113,94.265l-0.469-3.546c2.942,0.067,6.122-0.502,8.898-3.278c2.91-2.91,3.245-6.724,0.434-9.534
			c-2.942-2.943-6.891-2.942-12.545,2.711l-2.342-2.342c5.053-5.052,4.75-8.831,2.108-11.474c-2.376-2.375-5.485-2.275-8.094,0.2
			c-1.908,2.04-2.644,4.784-2.642,7.526l-3.582-0.301c0.136-3.547,1.072-6.959,3.914-9.802c4.115-4.114,9.335-4.918,13.281-0.971
			c2.977,2.977,3.178,6.724,1.538,10.304l0.134,0.134c3.58-2.242,8.094-2.343,11.441,1.002c4.381,4.382,3.478,10.504-0.871,14.853
			C176.471,93.596,172.457,94.398,169.113,94.265z"/>
	</g>
	<g>
		<circle fill="none" stroke="#007DC0" stroke-width="5" stroke-miterlimit="10" cx="375.212" cy="283.778" r="156.788"/>
		<circle fill="#007DC0" cx="375.212" cy="283.778" r="145.72"/>
		<g>
			<path fill="#FFFFFF" d="M321.795,216.426v134.703h46.449v-18.58v-13.935h13.935v13.935v18.58h46.45V216.426H321.795z
				 M354.31,332.55h-13.935v-13.935h13.935V332.55z M354.31,304.68h-13.935v-13.935h13.935V304.68z M354.31,276.811h-13.935v-13.935
				h13.935V276.811z M354.31,248.941h-13.935v-13.935h13.935V248.941z M382.179,304.68h-13.935v-13.935h13.935V304.68z
				 M382.179,276.811h-13.935v-13.935h13.935V276.811z M382.179,248.941h-13.935v-13.935h13.935V248.941z M410.05,332.55h-13.936
				v-13.935h13.936V332.55z M410.05,304.68h-13.936v-13.935h13.936V304.68z M410.05,276.811h-13.936v-13.935h13.936V276.811z
				 M410.05,248.941h-13.936v-13.935h13.936V248.941z"/>
		</g>
	</g>
</g>
</svg>
