<?xml version="1.0" encoding="utf-8"?>
<!-- Generator: Adobe Illustrator 17.0.0, SVG Export Plug-In . SVG Version: 6.00 Build 0)  -->
<!DOCTYPE svg PUBLIC "-//W3C//DTD SVG 1.1//EN" "http://www.w3.org/Graphics/SVG/1.1/DTD/svg11.dtd">
<svg version="1.1" id="レイヤー_1" xmlns="http://www.w3.org/2000/svg" xmlns:xlink="http://www.w3.org/1999/xlink" x="0px"
	 y="0px" width="700px" height="120px" viewBox="0 0 700 120" enable-background="new 0 0 700 120" xml:space="preserve">
<g>
	<rect fill="#EF7A00" width="700" height="120"/>
</g>
<rect opacity="0.2" fill="#FFFFFF" enable-background="new    " width="700" height="60"/>
<g>
	<g>
		<path fill="#FFFFFF" d="M201.69,56.808c-3.15,2.607-6.734,5.43-9.83,7.602c2.498,5.866,5.974,10.645,10.807,13.523
			c-1.521,1.303-3.53,3.801-4.616,5.539c-8.852-6.083-13.196-17.106-15.803-30.846c-1.466,2.01-3.041,3.91-4.779,5.648v16.401
			c3.313-0.652,6.843-1.412,10.264-2.172l0.651,5.81c-7.331,1.792-15.205,3.53-21.179,4.834l-1.792-6.136
			c1.738-0.326,3.747-0.652,5.919-1.086V63.759c-1.521,1.195-3.096,2.281-4.671,3.258c-0.706-1.086-2.172-3.095-3.367-4.507v21.342
			h-6.082V55.395c-1.357,1.792-2.77,3.422-4.181,4.834c-0.597-1.575-2.281-5.159-3.367-6.734
			c4.996-4.779,9.829-12.436,12.761-20.093l5.974,1.955c-0.923,2.281-1.955,4.616-3.095,6.951h14.391v-8.309h6.571v8.309h14.119
			v5.974h-12.87c0.597,3.801,1.358,7.385,2.39,10.806c2.552-2.172,5.159-4.724,6.951-6.843L201.69,56.808z M163.296,61.098
			c5.485-3.041,10.698-7.602,14.337-12.816h-12.49V42.58c-0.597,1.195-1.195,2.335-1.847,3.476V61.098z"/>
		<path fill="#FFFFFF" d="M225.157,75c-1.032-1.738-2.987-4.399-4.888-6.734v15.695h-5.756V70.058
			c-2.172,3.855-4.725,7.494-7.331,9.883c-0.543-1.738-1.792-4.344-2.715-5.919c3.041-2.661,6.354-7.005,8.58-11.078h-6.408V48.065
			h7.874v-3.476h-8.635v-5.702h8.635v-5.539h5.756v5.539h8.363v5.702h-8.363v3.476h8.146v14.879h-6.734
			c2.444,2.281,6.191,6.028,7.222,7.114L225.157,75z M211.417,58.056h3.53v-5.159h-3.53V58.056z M223.419,52.898h-3.584v5.159h3.584
			V52.898z M240.797,76.684c-2.878,2.823-7.766,5.81-11.893,7.439c-1.032-1.194-2.824-2.987-4.181-4.073
			c4.018-1.466,8.635-4.344,10.915-6.679L240.797,76.684z M253.83,73.371h-22.645V44.752h6.951c0.217-1.249,0.435-2.552,0.598-3.801
			h-9.558v-5.539h26.338v5.539h-9.992c-0.38,1.304-0.815,2.606-1.249,3.801h9.558V73.371z M247.748,49.531h-10.752v3.367h10.752
			V49.531z M247.748,57.35h-10.752v3.367h10.752V57.35z M247.748,65.225h-10.752v3.367h10.752V65.225z M248.019,73.805
			c2.878,2.01,6.788,4.996,8.798,7.06l-5.05,3.258c-1.792-2.009-5.594-5.213-8.472-7.385L248.019,73.805z"/>
		<path fill="#FFFFFF" d="M273.17,37.529c-0.435,1.086-1.086,3.802-1.304,4.779c-0.815,3.584-2.552,15.423-2.552,20.799
			c0,1.086,0.054,2.389,0.218,3.476c0.706-1.901,1.574-3.693,2.389-5.485l3.313,2.661c-1.52,4.399-3.258,9.884-3.855,12.816
			c-0.163,0.761-0.326,1.901-0.272,2.499c0,0.543,0,1.466,0.055,2.227l-6.082,0.434c-1.086-3.747-2.118-9.884-2.118-17.161
			c0-8.146,1.575-18.301,2.227-22.428c0.217-1.521,0.488-3.584,0.488-5.268L273.17,37.529z M306.187,78.095
			c-2.227-2.117-4.399-3.91-6.517-5.376c-0.326,5.105-3.258,8.797-10.535,8.797c-7.385,0-12.056-3.15-12.056-8.797
			c0-5.485,4.616-9.233,11.947-9.233c1.249,0,2.444,0.055,3.53,0.218c-0.163-3.313-0.326-7.223-0.38-11.024
			c-1.304,0.054-2.607,0.054-3.856,0.054c-3.149,0-6.191-0.109-9.395-0.326v-6.408c3.095,0.327,6.191,0.489,9.395,0.489
			c1.249,0,2.552,0,3.802-0.054c-0.054-2.661-0.054-4.834-0.109-5.974c0-0.815-0.163-2.444-0.326-3.529h7.711
			c-0.163,1.032-0.271,2.334-0.326,3.476c-0.054,1.194-0.163,3.204-0.163,5.593c2.933-0.326,5.757-0.706,8.309-1.249v6.679
			c-2.607,0.38-5.43,0.706-8.363,0.924c0.109,5.212,0.38,9.503,0.597,13.141c4.507,1.846,7.874,4.616,10.372,6.951L306.187,78.095z
			 M292.828,69.352c-1.412-0.38-2.878-0.597-4.345-0.597c-3.041,0-5.104,1.249-5.104,3.258c0,2.172,2.172,3.15,4.996,3.15
			c3.313,0,4.453-1.738,4.453-4.888V69.352z"/>
		<path fill="#FFFFFF" d="M328.459,62.727c-0.489,1.955-0.923,3.639-0.923,5.43c0,3.422,3.258,5.919,11.024,5.919
			c7.277,0,14.119-0.815,18.898-2.118l0.054,7.549c-4.67,1.14-11.133,1.846-18.681,1.846c-12.327,0-18.518-4.127-18.518-11.512
			c0-3.15,0.652-5.757,1.086-7.766L328.459,62.727z M323.897,39.919c4.019,0.434,9.015,0.651,14.663,0.651
			c5.322,0,11.458-0.326,15.585-0.76v7.222c-3.747,0.272-10.427,0.652-15.531,0.652c-5.648,0-10.318-0.272-14.717-0.597V39.919z"/>
		<path fill="#FFFFFF" d="M409.272,47.25c-5.594,0.868-14.119,1.9-21.342,2.281c-0.706,3.258-1.575,6.679-2.444,9.286
			c4.345-2.39,8.417-3.367,13.359-3.367c8.689,0,14.445,4.67,14.445,11.512c0,12.111-11.622,16.455-28.999,14.608l-1.9-6.951
			c11.784,1.901,23.677,0.489,23.677-7.439c0-3.205-2.823-5.919-8.037-5.919c-6.191,0-11.676,2.226-14.88,6.354
			c-0.597,0.706-0.977,1.412-1.521,2.335l-6.354-2.281c2.552-4.942,4.724-12.11,6.137-18.029c-3.421-0.055-6.571-0.272-9.286-0.543
			v-6.68c3.205,0.544,7.278,0.978,10.535,1.032c0.109-0.815,0.272-1.52,0.327-2.172c0.271-2.335,0.326-3.638,0.271-5.43l7.603,0.326
			c-0.598,1.901-0.869,3.693-1.25,5.485l-0.326,1.629c6.137-0.326,13.413-1.14,19.876-2.552L409.272,47.25z"/>
		<path fill="#FFFFFF" d="M437.137,59.088c4.888-3.529,10.21-5.105,15.803-5.105c9.449,0,14.934,5.811,14.934,12.328
			c0,9.829-7.766,17.378-30.14,15.423l-2.063-7.06c16.128,2.281,24.655-1.684,24.655-8.526c0-3.476-3.313-6.028-8.038-6.028
			c-6.082,0-11.458,2.227-14.825,6.3c-0.977,1.195-1.574,2.063-2.009,3.15l-6.246-1.575c1.033-5.267,2.335-15.749,2.661-22.428
			l7.278,0.978C438.441,49.531,437.518,55.993,437.137,59.088z M438.82,35.737c5.105,1.575,16.781,3.639,21.505,4.182l-1.629,6.625
			c-5.43-0.706-17.432-3.205-21.613-4.29L438.82,35.737z"/>
	</g>
	<polygon fill="#FFFFFF" points="501.42,81.423 523.933,58.911 501.42,36.398 490.111,36.398 512.623,58.911 490.111,81.423 	"/>
	<polygon fill="#FFFFFF" points="527.822,81.423 550.334,58.911 527.822,36.398 516.512,36.398 539.025,58.911 516.512,81.423 	"/>
</g>
</svg>
