<?xml version="1.0" encoding="utf-8"?>
<!-- Generator: Adobe Illustrator 17.0.0, SVG Export Plug-In . SVG Version: 6.00 Build 0)  -->
<!DOCTYPE svg PUBLIC "-//W3C//DTD SVG 1.1//EN" "http://www.w3.org/Graphics/SVG/1.1/DTD/svg11.dtd">
<svg version="1.1" id="レイヤー_1" xmlns="http://www.w3.org/2000/svg" xmlns:xlink="http://www.w3.org/1999/xlink" x="0px"
	 y="0px" width="160px" height="160px" viewBox="0 0 160 160" enable-background="new 0 0 160 160" xml:space="preserve">
<polygon fill="#FFFFFF" points="160,0 160,160 0,160 "/>
<g>
	<path d="M105.414,106.603h3.387c2.674,0,4.457,0.891,4.457,3.483c0,2.512-1.783,3.679-4.376,3.679h-1.96v4.716h-1.508V106.603z
		 M108.688,112.55c2.091,0,3.079-0.762,3.079-2.464c0-1.717-1.053-2.269-3.144-2.269h-1.701v4.732H108.688z"/>
	<path d="M114.974,116.196c0-1.912,1.67-2.868,5.413-3.289c0-1.135-0.373-2.221-1.815-2.221c-1.021,0-1.944,0.471-2.642,0.94
		l-0.583-1.021c0.811-0.519,2.058-1.15,3.468-1.15c2.14,0,3.047,1.442,3.047,3.614v5.412h-1.216l-0.13-1.054h-0.048
		c-0.843,0.697-1.831,1.265-2.917,1.265C116.076,118.692,114.974,117.784,114.974,116.196z M120.387,116.342v-2.464
		c-2.966,0.356-3.971,1.086-3.971,2.221c0,1.005,0.681,1.409,1.556,1.409C118.831,117.508,119.527,117.104,120.387,116.342z"/>
	<path d="M123.982,120.167c0-0.746,0.486-1.459,1.313-1.993v-0.065c-0.47-0.275-0.811-0.745-0.811-1.441
		c0-0.729,0.535-1.313,0.988-1.637v-0.065c-0.583-0.47-1.15-1.313-1.15-2.366c0-1.928,1.523-3.144,3.306-3.144
		c0.486,0,0.924,0.113,1.231,0.228h3.063v1.134h-1.799c0.421,0.405,0.713,1.054,0.713,1.815c0,1.88-1.426,3.063-3.209,3.063
		c-0.438,0-0.924-0.113-1.313-0.308c-0.324,0.275-0.567,0.566-0.567,1.053c0,0.567,0.356,0.956,1.54,0.956h1.718
		c2.042,0,3.063,0.648,3.063,2.091c0,1.637-1.718,3.046-4.44,3.046C125.473,122.532,123.982,121.69,123.982,120.167z
		 M130.643,119.712c0-0.811-0.632-1.086-1.799-1.086h-1.523c-0.324,0-0.745-0.048-1.135-0.146c-0.632,0.454-0.907,0.973-0.907,1.491
		c0,0.939,0.956,1.556,2.561,1.556C129.524,121.528,130.643,120.636,130.643,119.712z M129.492,112.598
		c0-1.279-0.827-2.058-1.864-2.058s-1.88,0.762-1.88,2.058c0,1.28,0.859,2.091,1.88,2.091
		C128.633,114.689,129.492,113.878,129.492,112.598z"/>
	<path d="M133.12,114.089c0-2.852,1.929-4.635,3.971-4.635c2.236,0,3.5,1.621,3.5,4.133c0,0.324-0.032,0.632-0.064,0.843h-5.932
		c0.098,1.879,1.248,3.078,2.917,3.078c0.859,0,1.556-0.259,2.204-0.696l0.535,0.972c-0.778,0.503-1.718,0.908-2.917,0.908
		C135,118.692,133.12,116.99,133.12,114.089z M139.295,113.376c0-1.782-0.811-2.738-2.188-2.738c-1.247,0-2.35,1.004-2.527,2.738
		H139.295z"/>
	<path d="M111.848,128.12h-3.598v-1.264h8.702v1.264h-3.598v10.614h-1.507V128.12z"/>
	<path d="M118.279,134.342c0-2.933,1.929-4.635,4.084-4.635s4.084,1.702,4.084,4.635c0,2.917-1.929,4.603-4.084,4.603
		S118.279,137.259,118.279,134.342z M124.924,134.342c0-2.025-1.037-3.403-2.561-3.403s-2.544,1.378-2.544,3.403
		s1.021,3.371,2.544,3.371S124.924,136.368,124.924,134.342z"/>
	<path d="M128.763,129.935h1.215l0.13,1.004h0.049c0.794-0.647,1.782-1.231,2.803-1.231c2.27,0,3.501,1.783,3.501,4.489
		c0,3.014-1.799,4.748-3.824,4.748c-0.795,0-1.637-0.373-2.432-1.021l0.033,1.54v2.981h-1.475V129.935z M134.92,134.212
		c0-1.944-0.648-3.257-2.317-3.257c-0.745,0-1.507,0.421-2.365,1.216v4.618c0.794,0.681,1.571,0.924,2.155,0.924
		C133.851,137.713,134.92,136.401,134.92,134.212z"/>
</g>
<polyline fill="none" stroke="#000000" stroke-miterlimit="10" points="121.519,100.253 121.519,64.81 138.228,81.519 "/>
</svg>
