<?xml version="1.0" encoding="utf-8"?>
<!-- Generator: Adobe Illustrator 17.0.0, SVG Export Plug-In . SVG Version: 6.00 Build 0)  -->
<!DOCTYPE svg PUBLIC "-//W3C//DTD SVG 1.1//EN" "http://www.w3.org/Graphics/SVG/1.1/DTD/svg11.dtd">
<svg version="1.1" id="レイヤー_1" xmlns="http://www.w3.org/2000/svg" xmlns:xlink="http://www.w3.org/1999/xlink" x="0px"
	 y="0px" width="720px" height="80px" viewBox="0 0 720 80" enable-background="new 0 0 720 80" xml:space="preserve">
<g>
	<path fill="#FFFFFF" d="M156.654,76.727c-11.887-5.719-23.028-14.793-25.244-30.425c-4.181,5.643-7.285,8.693-8.548,9.989
		c3.302,1.906,10.828,7.397,14.228,11.209l-11.02,7.549c-2.055-6.558-5.306-12.353-7.529-14.869
		c-12.539,10.37-24.164,14.488-29.209,16.242l-2.09-3.584c18.014-7.473,33.969-22.342,42.837-43.769h-29.432l1.144-4.27h29.889
		c0.163-0.61,0.561-1.525,0.745-2.211l2.86-10.675c0.654-2.44,0.91-3.965,1.463-7.168l10.73,0.076c0.458,0,0.681,0.305,0.578,0.686
		c-0.163,0.61-0.499,1.296-0.953,2.135l-3.984,14.869c-0.143,0.534-0.266,0.991-0.689,2.288h30.194l-1.144,4.27h-29.66
		c-1.731,13.573-1.221,31.874,18.918,44.074L156.654,76.727z"/>
	<path fill="#FFFFFF" d="M186.375,70.551c17.581-6.71,24.845-18.453,25.905-20.131h-1.677c-5.76,4.423-8.97,5.871-11.777,7.244
		l-1.466-2.211c-2.965,9.074-8.532,9.074-11.048,9.074h-4.117l-0.019-5.338c0.417,0.152,1.27,0.381,2.643,0.381
		c1.525,0,3.278,0,4.893-6.024c0.429-1.601,2.615-9.76-0.341-19.216l11.67-22.495h-6.939l-17.183,64.129h-8.921l18.328-68.399
		h25.695l-0.777,2.898l-14.985,23.486c4.132,8.769,2.209,17.081,1.667,19.673c4.961-3.431,8.82-8.159,11.24-12.353h-9.226
		l1.144-4.27H247.9l-1.144,4.27h-26.763c-1.696,2.059-3.075,3.508-4.51,4.88h28.211c-7.91,28.671-9.834,29.586-20.584,29.586h-7.549
		l0.108-4.956c0.93,0.229,2.277,0.61,5.022,0.61c5.566,0,6.025-1.144,10.885-17.004c-9.797,12.658-21.033,18.453-30.096,22.113
		l-2.247-3.279c10.751-4.27,19.882-12.734,25.552-22.8h-3.05c-4.084,5.566-15.45,17.538-33.458,23.562L186.375,70.551z
		 M251.212,7.566l-6.599,24.63h-36.751l6.599-24.63H251.212z M220.033,22.054l-1.574,5.871h17.613l1.574-5.871H220.033z
		 M238.791,17.784l1.594-5.948h-17.613l-1.594,5.948H238.791z"/>
	<path fill="#FFFFFF" d="M326.98,34.712l-1.124,4.194h-21.121l-7.641,28.519c-0.777,2.898-1.144,4.27,2.821,4.27h2.135
		c3.965,0,5.872,0,10.778-13.192c1.848,1.068,2.662,1.449,8.367,3.203c-5.058,12.048-9.082,14.259-15.106,14.259h-12.962
		c-7.853,0-8.232-2.288-6.291-9.532l7.376-27.527h-8.463c-4.064,14.031-6.301,21.808-16.782,29.052
		c-7.973,5.566-17.181,7.778-22.479,8.769l-1.668-3.736c20.83-7.168,24.576-14.031,29.949-34.085h-19.901l1.124-4.194h30.194
		l6.395-23.867c0.797-2.974,0.899-3.355,1.441-5.948l10.975,0.305c0.076,0,0.472,0.229,0.268,0.991
		c-0.123,0.458-0.356,0.763-0.881,1.296l-7.294,27.222H326.98z M272.363,32.805c-0.068-6.863-2.89-17.386-4.602-21.808l4.756-2.669
		c4.498,4.27,10.398,13.268,12.599,18.148L272.363,32.805z M329.29,13.285c0.132,0.076,0.01,0.534-0.011,0.61
		c-0.122,0.458-0.453,0.839-1.801,1.601c-5.888,5.185-14.071,11.819-21.437,16.547l-3.199-2.288
		c7.646-8.617,12.78-16.394,15.527-21.808L329.29,13.285z"/>
	<path fill="#FFFFFF" d="M357.355,29.222c6.343,1.373,9.737,2.364,15.193,4.194c3.474-5.566,7.346-12.048,11.74-25.316l10.04,2.364
		c0.57,0.153,1.707,0.458,1.564,0.991c-0.102,0.381-1.349,1.906-1.451,2.288c-4.267,9.379-6.785,14.793-12.636,23.257
		c6.725,3.355,9.981,5.719,13.733,9.074l-10.012,9.76c-3.322-4.956-6.059-7.549-10.234-10.752
		c-16.452,18.148-33.865,23.943-44.218,27.299l-1.428-4.346c15.485-5.719,27.05-13.878,38.206-27.909
		c-5.4-2.898-9.282-4.346-15.146-5.795L357.355,29.222z"/>
	<path fill="#FFFFFF" d="M411.683,61.553c27.179-2.974,47.223-12.048,68.358-35.153l3.112,2.898
		c-3.885,5.109-10.795,14.107-22.197,22.8c-9.759,7.397-20.517,13.116-31.598,16.623c-2.243,0.686-13.201,3.736-15.693,4.499
		L411.683,61.553z M444.522,28.917c-2.24-4.728-5.795-11.667-15.914-17.157l3.468-4.118c9.924,2.516,16.512,6.1,23.015,12.277
		L444.522,28.917z"/>
	<path fill="#FFFFFF" d="M492.011,68.263c19.067-3.431,25.41-14.869,29.848-33.704h-15.097c-4.728,0-8.637,0.076-12.261,0.229
		l1.43-5.338c3.98,0.229,8,0.305,12.118,0.305h40.792c2.136,0,7.93,0,12.281-0.305l-1.43,5.338
		c-2.704-0.152-6.953-0.229-11.986-0.229H533.6c-3.964,14.793-7.111,19.139-8.068,20.436c-9.833,13.649-24.218,16.394-32.576,17.996
		L492.011,68.263z M522.995,15.801c-4.117,0-9.953,0.152-13.044,0.305l1.431-5.338c7.029,0.229,12.214,0.229,12.9,0.229h18.605
		c1.372,0,6.557,0,12.795-0.229l-1.431,5.338c-3.162-0.153-8.382-0.305-12.346-0.305H522.995z"/>
	<path fill="#FFFFFF" d="M567.846,67.272c19.119-4.194,41.329-13.954,56.084-47.963l-30.464,0.153
		c-7.167,0-10.238,0.076-13.328,0.229l1.409-5.261c4.305,0.153,8.728,0.153,13.074,0.153l28.994-0.076
		c4.117,0,7.341-0.076,8.81-0.153l3.795,5.185c-5.982,11.514-9.691,18.529-18.492,27.756
		c-17.174,17.996-37.955,22.418-48.404,24.706L567.846,67.272z M645.835,2.152c4.271,0,6.838,3.508,5.673,7.854
		c-1.185,4.423-5.708,7.93-9.902,7.93c-4.27,0-6.858-3.431-5.652-7.93C637.119,5.659,641.49,2.152,645.835,2.152z M644.753,6.193
		c-2.135,0-4.283,1.754-4.835,3.813c-0.571,2.135,0.636,3.889,2.771,3.889c2.058,0,4.206-1.754,4.778-3.889
		C647.998,8.023,646.811,6.193,644.753,6.193z"/>
	<path fill="#FFFFFF" d="M658.737,66.433c-0.122,0.457-0.638,2.669-0.781,3.203h-11.361c0.955-3.279,2.809-9.913,3.79-13.573
		l8.827-32.941c0.714-2.669,1.43-5.338,2.462-9.76c5.906,0.152,9.221,0.305,14.253,0.305h29.889c7.472,0,9.398-0.076,12.184-0.229
		c-1.91,6.558-2.83,9.989-3.259,11.59l-8.356,31.187c-1.267,4.728-2.702,10.37-3.464,13.497h-11.438
		c0.266-0.991,0.689-2.288,0.955-3.279H658.737z M659.928,61.705h33.854l11.585-43.235h-33.854L659.928,61.705z"/>
</g>
<g>
	<ellipse fill="#FFFFFF" cx="39.212" cy="39.589" rx="20.062" ry="20.062"/>
	<rect x="37.044" y="2.178" fill="#FFFFFF" width="4.337" height="11.928"/>
	<rect x="37.044" y="65.072" fill="#FFFFFF" width="4.337" height="11.928"/>
	<polygon fill="#FFFFFF" points="28.349,16.435 22.385,6.106 18.629,8.274 24.593,18.605 	"/>
	
		<rect x="48.971" y="64.652" transform="matrix(0.5001 0.866 -0.866 0.5001 85.3273 -14.1679)" fill="#FFFFFF" width="11.928" height="4.337"/>
	<polygon fill="#FFFFFF" points="5.729,22.761 16.059,28.725 18.228,24.969 7.898,19.005 	"/>
	<polygon fill="#FFFFFF" points="60.197,54.208 70.527,60.172 72.696,56.417 62.366,50.453 	"/>
	<rect x="1.801" y="37.42" fill="#FFFFFF" width="11.928" height="4.337"/>
	<rect x="64.695" y="37.42" fill="#FFFFFF" width="11.928" height="4.337"/>
	<polygon fill="#FFFFFF" points="5.729,56.415 7.898,60.172 18.228,54.208 16.059,50.451 	"/>
	<polygon fill="#FFFFFF" points="72.696,22.761 70.527,19.005 60.197,24.969 62.366,28.725 	"/>
	
		<rect x="21.323" y="60.86" transform="matrix(0.866 0.5 -0.5 0.866 36.5604 -2.7929)" fill="#FFFFFF" width="4.338" height="11.928"/>
	<polygon fill="#FFFFFF" points="50.075,16.435 53.832,18.605 59.796,8.274 56.04,6.106 	"/>
</g>
</svg>
