<?xml version="1.0" encoding="utf-8"?>
<!-- Generator: Adobe Illustrator 17.0.0, SVG Export Plug-In . SVG Version: 6.00 Build 0)  -->
<!DOCTYPE svg PUBLIC "-//W3C//DTD SVG 1.1//EN" "http://www.w3.org/Graphics/SVG/1.1/DTD/svg11.dtd">
<svg version="1.1" id="レイヤー_1" xmlns="http://www.w3.org/2000/svg" xmlns:xlink="http://www.w3.org/1999/xlink" x="0px"
	 y="0px" width="730px" height="115px" viewBox="0 0 730 115" enable-background="new 0 0 730 115" xml:space="preserve">
<g>
	<g>
		<path fill="#FFDC00" d="M161.202,99.949c4.55,3.601,11.451,6.551,17.851,7.9c-0.85,0.801-2,2.25-2.5,3.301
			c-6.7-1.9-14.001-5.65-18.801-10.251v10.901h-3.65v-10.651C149.301,105.5,142,109.1,135.45,111c-0.5-0.95-1.6-2.35-2.4-3.15
			c6.2-1.399,13.151-4.4,17.651-7.9H134.35v-3.15h19.751V93.1H139.05v-2.851h15.051v-3.65H136.55v-3.05h10.901
			c-0.45-1.5-1.45-3.5-2.45-5.001l1.75-0.35H134.55v-3.2h7.95c-0.7-2-2.45-5-3.95-7.25l3.15-1.051c1.7,2.25,3.5,5.351,4.25,7.351
			l-2.55,0.95h6.15v-8.851h3.45v8.851h5.95v-8.851h3.5v8.851h6.05l-1.85-0.6c1.3-2.101,2.9-5.351,3.8-7.601l3.8,1
			c-1.4,2.55-3,5.3-4.4,7.2h7.75v3.2h-10.001c-1,1.9-2.1,3.851-3.1,5.351h11.351v3.05h-18.101v3.65h15.651V93.1h-15.651v3.699
			h20.051v3.15H161.202z M148.751,78.198c1.1,1.55,2.1,3.65,2.5,5l-1.6,0.351h11.75l-0.5-0.15c0.85-1.45,1.85-3.5,2.55-5.2H148.751z
			"/>
		<path fill="#FFDC00" d="M209.402,85.499c-2.6,1.85-5.3,3.6-8.051,5.2h20.651v20.901h-3.8v-1.4h-20.251v1.601h-3.65V94.499
			c-3,1.45-6.101,2.8-9.15,3.95c-0.45-0.8-1.65-2.3-2.35-3.05c7.25-2.55,14.25-5.851,20.551-9.9H183.9v-3.351h17.101v-6.4h-12.75
			v-3.3h12.75v-6.251h3.65v6.251h12.351v2.05c2.101-2.101,4-4.301,5.701-6.601l3.15,1.7c-3.5,4.601-7.6,8.801-12.15,12.551h14.401
			v3.351H209.402z M218.202,93.85h-20.251v4.95h20.251V93.85z M218.202,106.95v-5.2h-20.251v5.2H218.202z M208.152,82.148
			c2.7-2,5.25-4.15,7.6-6.4h-11.101v6.4H208.152z"/>
		<path fill="#FFDC00" d="M243.051,101.8c2.35,3.75,6.8,5.45,12.651,5.7c5.65,0.25,17.301,0.1,23.401-0.3
			c-0.45,0.8-1.05,2.45-1.2,3.5c-5.65,0.25-16.451,0.35-22.101,0.15c-6.601-0.251-11.151-2.051-14.251-6.001
			c-2.1,2.2-4.351,4.301-6.75,6.501l-1.95-3.45c2.1-1.551,4.55-3.65,6.75-5.751v-12.9h-6.15v-3.5h9.601V101.8z M241.101,77.748
			c-1.3-2.5-4.5-6.051-7.4-8.5l2.85-1.9c2.95,2.35,6.25,5.8,7.65,8.301L241.101,77.748z M278.403,97.649h-33.252v-2.9h9v-4.75h-7.4
			v-2.851h7.4v-3.6h3.45v3.6h8.201v-3.6h3.55v3.6h7.5v2.851h-7.5v4.75h9.05V97.649z M256.802,70.697h-10.701v-2.6h13.851v8.45
			h-9.851v2.601c0,0.9,0.25,1.1,1.85,1.1h5.4c1.2,0,1.45-0.3,1.6-2.5c0.65,0.5,1.85,0.9,2.75,1.05c-0.35,3.251-1.3,4.101-3.85,4.101
			h-6.2c-3.7,0-4.65-0.75-4.65-3.75v-5.2h9.801V70.697z M259.102,99.35c-2.55,2.4-6.55,4.85-9.851,6.45
			c-0.6-0.65-1.95-1.851-2.75-2.351c3.4-1.35,7.101-3.25,9.301-5.25L259.102,99.35z M257.602,94.749h8.201v-4.75h-8.201V94.749z
			 M272.902,70.697h-10.55v-2.6h13.851v8.45h-9.75v2.551c0,0.95,0.3,1.149,1.95,1.149h5.95c1.2,0,1.45-0.3,1.6-2.65
			c0.65,0.45,1.85,0.851,2.75,1.051c-0.35,3.35-1.3,4.25-3.951,4.25h-6.7c-3.7,0-4.75-0.75-4.75-3.75v-5.2h9.601V70.697z
			 M274.053,105.9c-2.1-1.851-5.701-4.201-9.151-5.951l2.65-1.649c3.65,1.75,7.75,4.149,10.101,6L274.053,105.9z"/>
		<path fill="#FFDC00" d="M307.852,106.85c2.45,0.45,5.2,0.601,8.101,0.601c1.8,0,10.4,0,12.801-0.05
			c-0.6,0.899-1.25,2.649-1.4,3.75h-11.601c-10.351,0-17.801-1.801-22.351-10.251c-1.75,4.601-4.2,8.301-7.451,11.151
			c-0.6-0.65-2.15-1.951-3.05-2.501c5.551-4.3,8.25-11.4,9.351-20.351l3.8,0.35c-0.3,2.351-0.7,4.551-1.2,6.65
			c1.9,5.25,5.1,8.101,9.2,9.65V84.898h-12.4v-3.5h28.952v3.5h-12.751v8.301h14.801v3.45h-14.801V106.85z M288.9,82.698h-3.65
			V71.897h18.751v-5.7h3.85v5.7h18.901v10.801h-3.8v-7.3H288.9V82.698z"/>
		<path fill="#FFDC00" d="M356.751,101.25c0.15-1.9,0.2-5.101,0.2-7.701c-4.601,2.5-7.801,5.051-7.801,8.301
			c0,3.9,3.851,4.45,8.951,4.45c3.85,0,9.15-0.45,13.501-1.2l-0.101,4.051c-3.75,0.449-9.25,0.8-13.55,0.8
			c-7.101,0-12.801-1.5-12.801-7.551c0-5.851,5.9-9.55,11.651-12.551c-0.5-2.05-2.3-3.05-4.451-3.05c-3.25,0-6.25,1.6-8.55,3.65
			c-1.4,1.35-2.8,3.2-4.5,5.2l-3.4-2.55c6.3-6.101,9.55-11.201,11.4-15.102h-2.05c-2.1,0-5.45-0.1-8.15-0.3v-3.75
			c2.65,0.3,6.1,0.5,8.35,0.5c1.05,0,2.1,0,3.25-0.05c0.7-2.201,1.15-4.451,1.25-6.15l4.1,0.35c-0.35,1.4-0.8,3.45-1.5,5.7
			c5.05-0.25,10.451-0.7,15.151-1.5l-0.05,3.7c-4.9,0.75-11.001,1.2-16.401,1.4c-1.1,2.55-2.65,5.3-4.451,7.601
			c1.8-1.15,4.65-1.851,6.851-1.851c3.2,0,5.8,1.55,6.55,4.5c3.4-1.6,6.4-2.8,9-4c1.501-0.65,2.7-1.25,4.101-1.95l1.6,3.75
			c-1.25,0.351-3.05,1.051-4.35,1.551c-2.801,1.1-6.351,2.55-10.101,4.3c0.05,2.851,0.1,7.051,0.15,9.451H356.751z"/>
		<path fill="#FFDC00" d="M390.801,77.198c-1.45,1.65-3,3.2-4.5,4.45c-0.701-0.7-2.15-1.95-3.051-2.45
			c4.301-3.15,8.301-8.001,10.65-13.051l3.551,1.05c-0.75,1.601-1.65,3.2-2.65,4.7h31.552v3.301h-5.149v8.45h7v3.301h-7v8.55h6.3
			v3.351H384.65v-3.351h6.15v-8.55h-6.951v-3.301h6.951V77.198z M383.5,110.4c2.6-2.051,4.951-5.851,6.201-9.451l3.449,0.851
			c-1.199,3.75-3.449,7.7-6.15,10.051L383.5,110.4z M394.15,83.648h5.551v-8.45h-5.551V83.648z M394.15,95.499h5.551v-8.55h-5.551
			V95.499z M401.752,101.85c0.6,2.95,1.149,6.75,1.199,9.001l-3.55,0.5c-0.05-2.301-0.45-6.15-1.05-9.151L401.752,101.85z
			 M408.652,83.648v-8.45h-5.801v8.45H408.652z M402.852,86.949v8.55h5.801v-8.55H402.852z M411.902,101.6
			c1.35,2.851,2.699,6.7,3.199,9.051l-3.6,0.75c-0.5-2.351-1.801-6.2-3.051-9.15L411.902,101.6z M417.702,75.198h-5.851v8.45h5.851
			V75.198z M417.702,86.949h-5.851v8.55h5.851V86.949z M422.002,100.75c2.5,3,5.451,7.1,6.801,9.8l-3.7,1.351
			c-1.2-2.65-4.05-6.9-6.5-10.001L422.002,100.75z"/>
		<path fill="#FFDC00" d="M445.001,87.049c1.399,1.55,6.4,8.15,7.501,9.851l-2.451,2.9c-0.9-1.851-3.25-5.7-5.05-8.501v20.502h-3.45
			V91.249c-1.85,5.351-4.4,10.9-6.9,14.251c-0.4-1.05-1.301-2.7-1.85-3.601c2.85-3.5,6-9.95,7.75-15.551h-7v-3.5h8V66.348h3.45
			v16.501h8.15v3.5h-8.15V87.049z M436.601,81.049c-0.251-2.951-1.4-7.551-2.7-11.051l2.7-0.65c1.45,3.45,2.601,8,2.95,10.951
			L436.601,81.049z M453.151,69.947c-1.2,3.751-2.75,8.451-4.101,11.251l-2.4-0.8c1.15-2.95,2.551-7.9,3.301-11.251L453.151,69.947z
			 M472.652,97.749v14.052h-3.5V98.399l-15.501,2.8l-0.601-3.45l16.102-2.85V66.197h3.5v28.052l5.9-1.05l0.551,3.4L472.652,97.749z
			 M462.502,90.749c-1.7-1.8-5.301-4.351-8.25-6.001l1.75-2.6c2.949,1.55,6.6,3.851,8.35,5.601L462.502,90.749z M464.652,78.648
			c-1.601-1.9-5-4.601-7.851-6.451l1.899-2.5c2.801,1.7,6.251,4.251,7.852,6.101L464.652,78.648z"/>
		<path fill="#FFDC00" d="M489.551,74.848c3.25-0.3,12.601-1.199,21.701-2c5.4-0.45,10.051-0.7,13.351-0.85v4
			c-2.851,0-7.15,0.05-9.7,0.8c-7.051,2.25-11.301,9.801-11.301,15.651c0,9.65,9,12.7,17.051,13.001l-1.45,4.2
			c-9.15-0.4-19.601-5.301-19.601-16.352c0-7.7,4.65-14.001,9.2-16.701c-4.351,0.5-17.851,1.801-23.202,2.9l-0.449-4.4
			C487.051,75.048,488.601,74.948,489.551,74.848z M521.703,88.999l-2.551,1.2c-1.15-2.4-2.6-5.001-4.1-7.051l2.549-1.1
			C518.752,83.698,520.652,86.799,521.703,88.999z M527.402,86.849l-2.6,1.2c-1.2-2.4-2.65-4.851-4.25-6.95l2.5-1.15
			C524.252,81.599,526.203,84.648,527.402,86.849z"/>
		<path fill="#FFDC00" d="M550.901,88.949c3.75-1.2,7.601-1.801,10.851-1.801c7.2,0,12.4,3.95,12.4,9.851
			c0,6.001-3.75,9.801-10.551,11.451c-2.199,0.5-4.4,0.6-6.1,0.649l-1.4-3.95c1.85,0,3.9,0.051,5.801-0.35
			c4.35-0.8,8.3-3.15,8.3-7.751c0-4.199-3.8-6.45-8.501-6.45c-3.699,0-7.199,0.7-10.75,1.95c0.1,4.2,0.2,8.551,0.2,10.701
			c0,4.6-1.75,6.05-4.4,6.05c-3.9,0-10.351-3.75-10.351-8.2c0-4.051,5.15-8.351,10.851-10.801v-2.8c0-2,0-4.301,0.05-6.501
			c-1.35,0.101-2.6,0.15-3.65,0.15c-2.25,0-4.4-0.05-6.3-0.25l-0.101-3.801c2.701,0.351,4.5,0.4,6.301,0.4
			c1.15,0,2.45-0.05,3.801-0.15c0.049-2.6,0.1-4.75,0.1-5.65c0-1-0.1-2.649-0.301-3.5h4.352c-0.101,0.9-0.201,2.25-0.25,3.4
			c-0.051,1.2-0.101,3.15-0.15,5.351c3.6-0.45,7.35-1.15,10.15-2l0.05,3.95c-2.899,0.649-6.7,1.3-10.301,1.7
			c-0.05,2.35-0.1,4.7-0.1,6.7V88.949z M547.451,102.75c0-1.801-0.1-5.15-0.15-8.751c-4,1.9-6.95,4.7-6.95,6.95s3.4,4.2,5.351,4.2
			C546.852,105.149,547.451,104.3,547.451,102.75z M566.952,73.648c3.501,1.85,8.9,5.25,11.301,7.25l-2,3.2
			c-2.45-2.351-7.95-5.7-11.101-7.4L566.952,73.648z"/>
		<path fill="#FFDC00" d="M628.453,95.549h-20.502v11.102c0,2.649-0.8,3.75-2.65,4.35c-1.85,0.601-5.05,0.7-10.3,0.65
			c-0.3-1.051-1-2.7-1.601-3.7c4.201,0.149,8.102,0.1,9.251,0.05c1.101,0,1.55-0.35,1.55-1.4V95.549H583.65v-3.649h20.551v-8.101
			H587v-3.551h17.201v-7.7c-5.5,0.6-11.15,0.95-16.301,1.2c-0.15-1-0.6-2.45-0.95-3.301c11.801-0.55,26.302-1.85,33.802-4.2
			l2.801,2.95c-4.25,1.301-9.701,2.25-15.602,2.95v8.101h17.701v3.551h-17.701v8.101h20.502V95.549z"/>
		<path fill="#FFDC00" d="M648.401,67.348c-1.4,3.5-3.15,7.051-5.101,10.301v34.002h-3.5V82.998
			c-1.801,2.501-3.65,4.701-5.551,6.601c-0.35-0.8-1.45-2.8-2.1-3.6c5.05-4.751,9.9-12.151,12.801-19.701L648.401,67.348z
			 M676.003,111.851c-0.4-1.301-1-2.751-1.75-4.351c-9.901,0.9-20.302,1.75-27.502,2.3l-0.7-3.75c1.65-0.1,3.5-0.2,5.5-0.35
			c2.001-4.7,4.201-11.651,5.501-17.201h-10.451v-3.601h32.452v3.601h-17.701c-1.7,5.5-3.9,12.101-5.95,16.951
			c5.25-0.351,11.251-0.801,17.151-1.301c-1.551-2.8-3.4-5.7-5.251-8.2l3.2-1.45c3.801,4.851,7.601,11.401,9.001,15.701
			L676.003,111.851z M676.353,73.598h-26.001v-3.55h26.001V73.598z"/>
		<path fill="#FFDC00" d="M691.9,77.998c-0.05,3.101,0,7.65,0.351,11.701c0.8,8.3,3.2,13.75,6.7,13.75c2.55,0,4.851-5.1,6.15-10.1
			l3.15,3.6c-2.95,8.4-6.001,11.251-9.4,11.251c-4.65,0-9.151-4.65-10.501-17.501c-0.5-4.301-0.55-10.301-0.55-13.201
			c0-1.15-0.051-3.2-0.301-4.4l4.801,0.101C692.101,74.398,691.95,76.698,691.9,77.998z M726.803,98.8l-4.05,1.6
			c-0.851-8.9-3.851-18.701-8.551-24.501l3.9-1.351C722.553,80.299,726.103,90.449,726.803,98.8z"/>
	</g>
	<g>
		<path fill="#FFDC00" d="M70.938,34.398c-0.043-0.029-0.085-0.062-0.129-0.091c-0.677-0.451-1.374-0.862-2.085-1.25
			c-0.133-0.073-0.263-0.146-0.397-0.217c-0.692-0.364-1.395-0.697-2.114-1c-0.147-0.062-0.294-0.12-0.441-0.18
			c-0.739-0.297-1.485-0.57-2.248-0.804c-0.085-0.026-0.172-0.046-0.257-0.072c-3.033-0.895-6.23-1.278-9.504-1.108
			c-0.264,0.014-0.527,0.034-0.791,0.056c-0.454,0.036-0.904,0.036-1.36,0.093c-4.956,0.625-9.685,2.603-13.609,5.696
			c-6.943,5.473-10.828,13.522-10.828,22.174c0,9.201,3.797,16.897,11.608,23.51c0.929,0.785,1.714,3.812,2.284,6.024
			c0.82,3.177,1.84,7.102,4.258,9.503c0.471,0.469,1.121,0.713,1.786,0.713h16.329c0.664,0,1.315-0.244,1.786-0.714
			c2.41-2.398,3.431-6.327,4.258-9.503c0.576-2.212,1.362-5.239,2.284-6.024c7.81-6.614,11.607-14.309,11.607-23.51
			c0-7.507-2.918-14.562-8.228-19.872C73.851,36.525,72.427,35.403,70.938,34.398z M67.114,75.708
			c-2.673,2.263-3.653,6.045-4.604,9.706c-0.648,2.522-1.635,6.326-2.81,6.326h-8.841c-1.174,0-2.161-3.805-2.817-6.326
			c-0.944-3.661-1.931-7.443-4.596-9.706c-6.182-5.238-9.064-10.959-9.064-18.013c0-5.584,2.176-10.83,6.124-14.778
			c3.949-3.941,9.194-6.117,14.771-6.117c5.584,0,10.83,2.176,14.778,6.117c3.949,3.948,6.117,9.194,6.117,14.778
			C76.171,64.749,73.296,70.47,67.114,75.708z"/>
		<path fill="#FFDC00" d="M45.909,100.638c0,5.173,4.194,9.367,9.367,9.367c5.082,0,9.209-4.05,9.353-9.097
			c0.003-0.08,0.013-0.156,0.013-0.237h-0.002c0-0.011,0.002-0.022,0.002-0.033L45.909,100.638z"/>
		<path fill="#FFDC00" d="M55.276,17.79c0.906,0,1.641-0.735,1.641-1.641l0.914-10.595C57.831,4.144,56.686,3,55.276,3
			c-1.411,0-2.555,1.144-2.555,2.554l0.914,10.595C53.635,17.055,54.37,17.79,55.276,17.79z"/>
		<path fill="#FFDC00" d="M27.355,27.035l-6.845-8.138c-0.081-0.081-0.186-0.115-0.275-0.183c-0.095-0.073-0.193-0.137-0.296-0.196
			c-0.198-0.111-0.395-0.192-0.61-0.247c-0.091-0.023-0.182-0.04-0.276-0.054c-0.236-0.033-0.464-0.033-0.7,0
			c-0.094,0.013-0.185,0.031-0.276,0.054c-0.215,0.055-0.412,0.136-0.609,0.247c-0.104,0.059-0.201,0.123-0.296,0.196
			c-0.089,0.068-0.195,0.102-0.276,0.183c-0.997,0.998-0.997,2.615,0,3.613l8.138,6.844c0.64,0.641,1.68,0.641,2.32,0
			C27.995,28.713,27.995,27.675,27.355,27.035z"/>
		<path fill="#FFDC00" d="M14.148,55.635L3.555,54.722C2.144,54.722,1,55.865,1,57.276c0,1.411,1.144,2.555,2.555,2.555
			l10.594-0.914c0.907,0,1.641-0.735,1.641-1.641C15.79,56.37,15.055,55.635,14.148,55.635z"/>
		<path fill="#FFDC00" d="M93.379,18.714c-0.094-0.073-0.192-0.137-0.295-0.195c-0.198-0.112-0.395-0.193-0.61-0.248
			c-0.09-0.023-0.182-0.04-0.275-0.054c-0.237-0.033-0.465-0.033-0.701,0c-0.094,0.013-0.186,0.031-0.276,0.054
			c-0.214,0.055-0.411,0.135-0.608,0.246c-0.104,0.059-0.203,0.124-0.299,0.199c-0.088,0.067-0.193,0.101-0.273,0.181l-6.845,8.138
			c-0.641,0.64-0.641,1.679,0,2.32c0.64,0.641,1.68,0.641,2.321,0l8.137-6.844c0.998-0.998,0.998-2.615,0-3.613
			C93.574,18.816,93.468,18.782,93.379,18.714z"/>
		<path fill="#FFDC00" d="M106.997,54.722l-10.594,0.914c-0.907,0-1.641,0.735-1.641,1.641c0,0.906,0.735,1.641,1.641,1.641
			l10.594,0.914c1.411,0,2.555-1.144,2.555-2.555C109.552,55.865,108.408,54.722,106.997,54.722z"/>
	</g>
	<g>
		<path fill="#FFFFFF" d="M169.114,30.201h-8.599v4.679c0,2.28-0.48,3.36-2.16,4c-1.64,0.6-4.04,0.64-7.239,0.64
			c-0.2-1.28-0.88-2.96-1.48-4.159c2.12,0.08,4.639,0.08,5.319,0.08c0.64-0.04,0.88-0.2,0.88-0.72v-4.519h-12.998
			c2,1.439,4.199,3.399,5.279,4.839l-3.799,2.8c-1.08-1.6-3.6-4-5.719-5.599l2.879-2.04h-8.558v-4h22.916v-2.12h-19.077V10.484
			h11.758v-1.8h-14.678V4.805h14.678V2.166h4.639v2.639h14.998v3.879h-14.998v1.8h12.278v13.598h-4.919v2.12h8.599V30.201z
			 M141.158,15.764h7.359v-2.04h-7.359V15.764z M141.158,20.843h7.359v-2.04h-7.359V20.843z M153.156,13.724v2.04h7.639v-2.04
			H153.156z M160.795,18.803h-7.639v2.04h7.639V18.803z"/>
		<path fill="#FFFFFF" d="M189.517,19.123h-10.519v20.356h-4.719V3.726h15.238V19.123z M178.999,7.564v2.08h6.079v-2.08H178.999z
			 M185.078,15.323v-2.279h-6.079v2.279H185.078z M207.954,33.721c0,2.719-0.56,4.119-2.319,4.839c-1.72,0.8-4.359,0.88-8.239,0.88
			c-0.2-1.36-0.96-3.6-1.68-4.879c2.52,0.16,5.479,0.12,6.319,0.12s1.12-0.28,1.12-1.04V19.243h-10.838V3.726h15.637V33.721z
			 M196.835,7.564v2.08h6.319v-2.08H196.835z M203.155,15.403v-2.359h-6.319v2.359H203.155z"/>
		<path fill="#FFFFFF" d="M240.115,36.88c0.04-0.64,0.04-1.32,0.04-2.08h-18.237c-1.56,0-3.839,0.12-5.159,0.24v-5.719
			c1.4,0.12,3.2,0.24,5,0.24h18.437V13.004h-17.957c-1.68,0-3.839,0.08-4.959,0.16v-5.56c1.48,0.16,3.56,0.24,4.959,0.24h20.116
			c1.16,0,2.84-0.04,3.52-0.08c-0.04,0.92-0.12,2.52-0.12,3.68v20.716c0,1.4,0.08,3.52,0.16,4.719H240.115z"/>
		<path fill="#FFFFFF" d="M270.957,27.001c6.799-4.04,12.038-10.158,14.558-15.557l3.12,5.639
			c-3.04,5.399-8.359,10.918-14.798,14.798c-4.039,2.439-9.198,4.679-14.837,5.639l-3.359-5.279
			C261.878,31.361,267.077,29.321,270.957,27.001z M270.957,14.044l-4.079,4.199c-2.08-2.24-7.079-6.599-9.999-8.639l3.759-4
			C263.438,7.485,268.637,11.644,270.957,14.044z"/>
		<path fill="#FFFFFF" d="M306.317,19.083l-2.919,4.479c-2.28-1.56-6.399-4.279-9.119-5.679l2.919-4.439
			C299.878,14.884,304.278,17.643,306.317,19.083z M309.557,28.241c6.799-3.799,12.358-9.278,15.558-14.997l3.08,5.438
			c-3.719,5.52-9.358,10.599-15.917,14.358c-4.079,2.32-9.798,4.319-13.358,4.959l-3-5.279
			C300.398,31.961,305.198,30.601,309.557,28.241z M312.477,10.044l-3,4.439c-2.24-1.56-6.399-4.279-9.039-5.759l2.919-4.399
			C305.998,5.805,310.397,8.604,312.477,10.044z"/>
		<path fill="#FFFFFF" d="M362.195,32.081c1.12,0,2.24-0.16,3.04-0.24v5.239c-0.84-0.16-2.32-0.2-3.04-0.2h-22.076
			c-0.96,0-2.2,0.04-3.28,0.2v-5.239c1.04,0.12,2.28,0.24,3.28,0.24h8.159V19.203h-6.239c-0.84,0-2.28,0.08-3.159,0.16v-5.039
			c0.879,0.16,2.279,0.2,3.159,0.2h18.317c0.96,0,2.16-0.08,3.12-0.2v5.039c-1-0.08-2.24-0.16-3.12-0.16h-6.839v12.877H362.195z"/>
		<path fill="#FFFFFF" d="M372.6,34.521c3.52-2.479,5.68-6.159,6.799-9.559c1.12-3.439,1.16-10.998,1.16-15.837
			c0-1.6-0.12-2.679-0.36-3.639h5.88c-0.041,0.16-0.281,1.959-0.281,3.599c0,4.719-0.119,13.158-1.199,17.197
			c-1.199,4.519-3.68,8.438-7.119,11.478L372.6,34.521z M391.117,35.12c0.159-0.76,0.319-1.88,0.319-2.959V8.845
			c0-1.8-0.28-3.319-0.319-3.439h5.959c-0.041,0.12-0.28,1.68-0.28,3.479v20.916c3.239-1.399,7.198-4.559,9.878-8.438l3.08,4.399
			c-3.32,4.319-9.079,8.639-13.559,10.918c-0.84,0.44-1.239,0.8-1.76,1.2L391.117,35.12z"/>
		<path fill="#FFFFFF" d="M425.797,19.283l-2.919,4.479c-2.279-1.6-6.438-4.279-9.118-5.719l2.879-4.399
			C419.358,15.083,423.758,17.843,425.797,19.283z M428.997,28.401c6.799-3.8,12.397-9.278,15.558-14.998l3.079,5.439
			c-3.679,5.559-9.358,10.599-15.878,14.397c-4.078,2.28-9.838,4.279-13.357,4.919l-2.999-5.239
			C419.879,32.161,424.678,30.801,428.997,28.401z M431.916,10.244l-2.959,4.399c-2.24-1.56-6.398-4.239-9.039-5.719l2.88-4.399
			C425.438,5.965,429.837,8.805,431.916,10.244z M443.834,11.484l-3.479,1.479c-1.16-2.52-2.08-4.239-3.52-6.279l3.319-1.399
			C441.314,6.965,442.914,9.645,443.834,11.484z M449.434,9.324l-3.399,1.52c-1.28-2.52-2.28-4.08-3.759-6.079l3.398-1.4
			C446.914,4.965,448.474,7.564,449.434,9.324z"/>
		<path fill="#FFFFFF" d="M481.555,31.641c1.04,0,2.88-0.04,3.92-0.16v5.159c-0.801-0.04-2.76-0.12-3.8-0.12h-21.076
			c-1.44,0-2.44,0.04-3.96,0.12V31.44c1.08,0.12,2.561,0.2,3.96,0.2h12.958c0.56-3.399,1.439-9.078,1.559-11.318h-10.797
			c-1.28,0-2.84,0.12-4,0.2v-5.279c1.04,0.12,2.879,0.24,3.959,0.24h10.238c0.84,0,2.48-0.16,3-0.44l3.84,1.879
			c-0.201,0.521-0.32,1.28-0.4,1.68c-0.32,2.359-1.359,9.238-1.96,13.038H481.555z"/>
		<path fill="#FFFFFF" d="M509.197,4.805c-0.24,1.04-0.48,2.28-0.68,3.28c-0.24,1.199-0.561,2.639-0.84,4.079
			c1.319-0.08,2.52-0.16,3.318-0.16c4.199,0,7.159,1.88,7.159,7.559c0,4.68-0.56,10.999-2.239,14.438
			c-1.32,2.76-3.479,3.64-6.52,3.64c-1.479,0-3.398-0.24-4.719-0.56l-0.88-5.239c1.52,0.439,3.839,0.84,4.88,0.84
			c1.318,0,2.318-0.4,2.959-1.72c1.08-2.2,1.6-6.919,1.6-10.838c0-3.16-1.359-3.599-3.84-3.599c-0.64,0-1.6,0.08-2.719,0.16
			c-1.561,5.999-4.439,15.317-8.079,21.156l-5.159-2.08c3.84-5.199,6.559-13.117,7.959-18.517c-1.4,0.16-2.64,0.32-3.399,0.44
			c-1.12,0.12-3.159,0.4-4.399,0.6l-0.439-5.359c1.439,0.12,2.759,0.04,4.199,0c1.239-0.04,3.119-0.16,5.119-0.32
			c0.56-3.04,0.879-5.919,0.84-8.399L509.197,4.805z M523.395,9.524c2.319,3.64,5.279,10.318,6.438,13.798l-5.039,2.359
			c-1.04-4.399-3.839-11.398-6.679-14.917l3.68-1.56c-0.8-1.52-1.8-3.439-2.72-4.719l3.159-1.32c1,1.48,2.4,4,3.2,5.479
			L523.395,9.524z M527.034,8.205c-0.84-1.68-2.12-4.04-3.239-5.519l3.159-1.32c1.08,1.52,2.56,4.04,3.239,5.439L527.034,8.205z"/>
	</g>
</g>
</svg>
