<?xml version="1.0" encoding="utf-8"?>
<!-- Generator: Adobe Illustrator 17.0.0, SVG Export Plug-In . SVG Version: 6.00 Build 0)  -->
<!DOCTYPE svg PUBLIC "-//W3C//DTD SVG 1.1//EN" "http://www.w3.org/Graphics/SVG/1.1/DTD/svg11.dtd">
<svg version="1.1" id="レイヤー_1" xmlns="http://www.w3.org/2000/svg" xmlns:xlink="http://www.w3.org/1999/xlink" x="0px"
	 y="0px" width="400px" height="400px" viewBox="0 0 400 400" enable-background="new 0 0 400 400" xml:space="preserve">
<g>
	<path fill="#FFFFFF" d="M187.597,79.985c-42.825,0-81.74,17.403-109.79,45.485c-28.068,28.043-45.486,66.957-45.478,109.775
		c-0.008,42.833,17.411,81.748,45.479,109.789c28.05,28.068,66.965,45.486,109.79,45.478c42.818,0.009,81.732-17.41,109.782-45.478
		c28.075-28.041,45.478-66.956,45.469-109.79c0.009-42.818-17.394-81.732-45.469-109.775
		C269.329,97.388,230.415,79.985,187.597,79.985z M276.273,323.937c-22.746,22.714-53.995,36.719-88.676,36.726
		c-34.679-0.007-65.945-14.012-88.692-36.726c-22.714-22.746-36.719-54.012-36.726-88.692c0.007-34.679,14.012-65.937,36.726-88.684
		c22.747-22.714,54.012-36.719,88.692-36.735c34.681,0.016,65.929,14.021,88.676,36.735c22.715,22.747,36.728,54.004,36.735,88.684
		C313.001,269.924,298.987,301.191,276.273,323.937z"/>
	<rect x="141.596" y="11.443" fill="#FFFFFF" width="87.706" height="40.936"/>
	<polygon fill="#FFFFFF" points="367.671,104.593 322.466,59.381 299.206,82.642 344.417,127.854 	"/>
	<g>
		<path fill="#FFFFFF" d="M160.009,290.141H138.69v-80.346c-7.789,7.284-16.97,12.67-27.539,16.16v-19.347
			c5.563-1.821,11.607-5.273,18.132-10.356c6.525-5.083,11.004-11.013,13.429-17.791h17.298V290.141z"/>
		<path fill="#FFFFFF" d="M227.914,178.46c10.773,0,19.195,3.845,25.266,11.532c7.23,9.104,10.848,24.202,10.848,45.294
			c0,21.042-3.642,36.165-10.926,45.37c-6.02,7.587-14.415,11.38-25.188,11.38c-10.824,0-19.551-4.16-26.174-12.481
			c-6.627-8.32-9.94-23.152-9.94-44.498c0-20.94,3.642-36.012,10.926-45.219C208.743,182.254,217.141,178.46,227.914,178.46z
			 M227.914,196.138c-2.578,0-4.882,0.823-6.904,2.466c-2.023,1.644-3.591,4.59-4.702,8.839c-1.47,5.514-2.202,14.795-2.202,27.844
			c0,13.05,0.657,22.015,1.972,26.896c1.314,4.882,2.971,8.131,4.97,9.749c1.999,1.619,4.289,2.428,6.867,2.428
			c2.578,0,4.882-0.822,6.904-2.466c2.023-1.643,3.591-4.59,4.702-8.839c1.467-5.463,2.202-14.719,2.202-27.769
			c0-13.05-0.657-22.014-1.972-26.896c-1.318-4.881-2.975-8.143-4.97-9.787C232.783,196.96,230.492,196.138,227.914,196.138z"/>
	</g>
</g>
</svg>
