<?xml version="1.0" encoding="utf-8"?>
<!-- Generator: Adobe Illustrator 17.0.0, SVG Export Plug-In . SVG Version: 6.00 Build 0)  -->
<!DOCTYPE svg PUBLIC "-//W3C//DTD SVG 1.1//EN" "http://www.w3.org/Graphics/SVG/1.1/DTD/svg11.dtd">
<svg version="1.1" id="_x32_" xmlns="http://www.w3.org/2000/svg" xmlns:xlink="http://www.w3.org/1999/xlink" x="0px" y="0px"
	 width="200px" height="200px" viewBox="0 0 200 200" enable-background="new 0 0 200 200" xml:space="preserve">
<g>
	<path fill="#EF7A00" d="M99.999,0.001C44.768,0.005,0.004,44.767,0,100c0.004,55.237,44.785,99.738,99.971,99.999h0.13l0.116-0.004
		c10.595,0.015,19.339-3.331,25.375-8.826c6.042-5.473,9.268-12.99,9.261-20.6c0.008-3.573-0.748-7.151-2.157-10.556
		c2.377-1.353,3.962-2.583,4.414-2.908c1.622-1.155,6.25-7.33,3.005-12.418c-3.259-5.084-14.86-16.671-18.028-18.634
		c-3.159-1.959-8.437-0.048-10.979,3.682c-2.549,3.73-4.56,2.613-4.56,2.613s-7.233-5.843-17.236-26.024
		C79.311,86.132,79.055,76.851,79.055,76.851s0.325-2.284,4.839-2.056c4.504,0.243,9.218-2.8,9.577-6.508
		c0.363-3.697-1.835-19.957-3.906-25.624c-2.077-5.67-9.79-5.723-11.691-5.132c-1.91,0.587-21.497,5.356-23.052,25.863
		c-1.549,20.51,3.736,39.133,11.306,54.418c7.573,15.281,19.191,30.768,36.445,41.955c6.988,4.53,13.695,5.117,19.333,4.168
		c0.97,2.164,1.452,4.411,1.463,6.635c-0.011,4.411-1.805,8.732-5.495,12.096c-3.699,3.345-9.403,5.831-17.656,5.846l-0.202,0.004
		C51.093,188.266,11.479,148.863,11.483,100c0.004-24.461,9.898-46.557,25.925-62.593c16.036-16.025,38.13-25.92,62.591-25.923
		c24.461,0.004,46.555,9.898,62.591,25.923c16.029,16.036,25.92,38.127,25.927,62.593c-0.004,15.105-3.776,29.284-10.429,41.712
		c-3.723,6.968-8.358,13.371-13.741,19.067c-2.175,2.307-2.071,5.94,0.232,8.116c2.302,2.179,5.939,2.078,8.119-0.228
		c6.07-6.43,11.304-13.663,15.513-21.539C195.731,133.093,200,117.027,200,100C199.992,44.767,155.23,0.005,99.999,0.001z"/>
</g>
</svg>
