<?xml version="1.0" encoding="utf-8"?>
<!-- Generator: Adobe Illustrator 17.0.0, SVG Export Plug-In . SVG Version: 6.00 Build 0)  -->
<!DOCTYPE svg PUBLIC "-//W3C//DTD SVG 1.1//EN" "http://www.w3.org/Graphics/SVG/1.1/DTD/svg11.dtd">
<svg version="1.1" id="レイヤー_1" xmlns="http://www.w3.org/2000/svg" xmlns:xlink="http://www.w3.org/1999/xlink" x="0px"
	 y="0px" width="200px" height="200px" viewBox="0 0 200 200" enable-background="new 0 0 200 200" xml:space="preserve">
<g>
	<g>
		<rect x="-0.04" fill="#EF7A00" width="200" height="200"/>
	</g>
	<path fill="#FFFFFF" d="M171.123,80.148v63.06c0,6.989-5.718,12.708-12.708,12.708H41.506c-6.989,0-12.708-5.718-12.708-12.708
		v-63.06c2.384,2.623,5.083,4.925,8.021,6.908c13.185,8.977,26.528,17.948,39.475,27.403c6.674,4.925,14.934,10.959,23.59,10.959
		h0.158c8.656,0,16.916-6.039,23.59-10.959c12.946-9.373,26.289-18.426,39.551-27.403c2.857-1.987,5.561-4.29,7.945-6.908H171.123z
		 M171.123,56.797c0,8.895-6.593,16.916-13.582,21.76c-12.392,8.575-24.861,17.155-37.172,25.812
		c-5.164,3.573-13.897,10.883-20.332,10.883h-0.158c-6.435,0-15.168-7.304-20.332-10.883c-12.311-8.656-24.78-17.237-37.091-25.812
		c-5.637-3.812-13.663-12.789-13.663-20.017c0-7.782,4.209-14.456,12.708-14.456h116.91c6.908,0,12.708,5.718,12.708,12.708
		L171.123,56.797z"/>
</g>
</svg>
